<svg width="315" height="66" viewBox="0 0 315 66" fill="none" xmlns="http://www.w3.org/2000/svg">
<g filter="url(#filter0_d_156_577)">
<path d="M4.792 30V10.26H23.02V30H17.868V14.46H9.944V30H4.792ZM26.6123 30V10.26H36.1043C38.3443 10.26 40.071 10.8387 41.2843 11.996C42.5163 13.1347 43.1323 14.712 43.1323 16.728C43.1323 18.744 42.5163 20.3307 41.2843 21.488C40.071 22.6267 38.3443 23.196 36.1043 23.196H31.7643V30H26.6123ZM31.7643 19.248H35.2083C37.2243 19.248 38.2323 18.408 38.2323 16.728C38.2323 15.048 37.2243 14.208 35.2083 14.208H31.7643V19.248ZM41.0487 30L50.2887 10.26H54.3487L63.5887 30H58.4367L56.7287 25.996H47.9087L46.2007 30H41.0487ZM52.2767 15.636L49.5887 22.048H55.0207L52.3327 15.636H52.2767ZM64.7842 30V10.26H74.3042C76.4322 10.26 78.0749 10.7267 79.2322 11.66C80.4082 12.5747 80.9962 13.8067 80.9962 15.356C80.9962 16.3827 80.7349 17.2787 80.2122 18.044C79.7082 18.8093 78.9989 19.3787 78.0842 19.752C79.1855 20.088 80.0349 20.6573 80.6322 21.46C81.2295 22.244 81.5282 23.224 81.5282 24.4C81.5282 26.136 80.9029 27.508 79.6522 28.516C78.4202 29.5053 76.7309 30 74.5842 30H64.7842ZM69.7122 18.1H73.3802C74.3135 18.1 74.9949 17.932 75.4242 17.596C75.8722 17.26 76.0962 16.7467 76.0962 16.056C76.0962 15.3653 75.8722 14.8613 75.4242 14.544C74.9949 14.208 74.3135 14.04 73.3802 14.04H69.7122V18.1ZM69.7122 26.22H73.8842C74.8362 26.22 75.5269 26.0427 75.9562 25.688C76.4042 25.3147 76.6282 24.764 76.6282 24.036C76.6282 23.308 76.4042 22.7667 75.9562 22.412C75.5269 22.0573 74.8362 21.88 73.8842 21.88H69.7122V26.22ZM93.9643 30.308C91.967 30.308 90.2123 29.888 88.7003 29.048C87.207 28.1893 86.0403 26.9947 85.2003 25.464C84.3603 23.9333 83.9403 22.1507 83.9403 20.116C83.9403 18.0627 84.351 16.28 85.1723 14.768C86.0123 13.2373 87.1883 12.052 88.7003 11.212C90.2123 10.372 91.967 9.952 93.9643 9.952C95.9617 9.952 97.707 10.372 99.2003 11.212C100.712 12.052 101.888 13.2373 102.728 14.768C103.568 16.28 103.988 18.0627 103.988 20.116C103.988 22.1507 103.568 23.9333 102.728 25.464C101.888 26.9947 100.712 28.1893 99.2003 29.048C97.707 29.888 95.9617 30.308 93.9643 30.308ZM93.9643 25.996C95.4203 25.996 96.559 25.4827 97.3803 24.456C98.2203 23.4107 98.6403 21.964 98.6403 20.116C98.6403 18.268 98.2297 16.8307 97.4083 15.804C96.587 14.7773 95.439 14.264 93.9643 14.264C92.4897 14.264 91.3417 14.7773 90.5203 15.804C89.699 16.8307 89.2883 18.268 89.2883 20.116C89.2883 21.964 89.699 23.4107 90.5203 24.456C91.3417 25.4827 92.4897 25.996 93.9643 25.996ZM113.47 30.308C111.846 30.308 110.409 30.1213 109.158 29.748C107.908 29.3747 106.778 28.8427 105.77 28.152L107.198 24.372C107.926 24.9133 108.785 25.3333 109.774 25.632C110.764 25.9307 111.837 26.08 112.994 26.08C114.264 26.08 115.197 25.9027 115.794 25.548C116.392 25.1747 116.69 24.6053 116.69 23.84C116.69 23.2053 116.466 22.7387 116.018 22.44C115.589 22.1227 114.898 21.964 113.946 21.964H109.186V18.016H113.414C114.366 18.016 115.057 17.8667 115.486 17.568C115.916 17.2693 116.13 16.8027 116.13 16.168C116.13 15.5893 115.888 15.1133 115.402 14.74C114.936 14.3667 114.161 14.18 113.078 14.18C112.07 14.18 111.081 14.3293 110.11 14.628C109.14 14.908 108.3 15.3187 107.59 15.86L106.134 12.08C107.03 11.4267 108.132 10.9133 109.438 10.54C110.745 10.148 112.173 9.952 113.722 9.952C116.224 9.952 118.09 10.4653 119.322 11.492C120.554 12.5187 121.17 13.8067 121.17 15.356C121.17 16.3827 120.909 17.2787 120.386 18.044C119.882 18.8093 119.173 19.3787 118.258 19.752C119.36 20.088 120.2 20.6573 120.778 21.46C121.376 22.244 121.674 23.224 121.674 24.4C121.674 26.136 121.002 27.5547 119.658 28.656C118.314 29.7573 116.252 30.308 113.47 30.308ZM121.959 30L131.199 10.26H135.259L144.499 30H139.347L137.639 25.996H128.819L127.111 30H121.959ZM133.187 15.636L130.499 22.048H135.931L133.243 15.636H133.187ZM170.95 34.9V30H145.694V10.26H150.762V25.8H156.642V10.26H161.682V25.8H167.562V10.26H172.63V25.8H175.43V34.9H170.95ZM177.851 30V10.26H182.639V21.684L191.683 10.26H195.463V30H190.703V18.548L181.631 30H177.851ZM203.717 30V14.46H197.445V10.26H215.141V14.46H208.869V30H203.717ZM217.089 30V10.26H222.241V17.876H230.389V10.26H235.513V30H230.389V22.104H222.241V30H217.089ZM239.101 30V10.26H243.889V21.684L252.933 10.26H256.713V30H251.953V18.548L242.881 30H239.101ZM260.319 30V10.26H265.471V18.156H267.431L272.135 10.26H277.707L272.051 19.192C273.321 19.9013 274.366 21.096 275.187 22.776L278.687 30H273.143L270.623 24.456C270.269 23.6907 269.83 23.1493 269.307 22.832C268.785 22.5147 268.113 22.356 267.291 22.356H265.471V30H260.319Z" fill="#4F8FF0"/>
<path d="M14.26 54.22C12.86 54.22 11.6933 53.88 10.76 53.2C9.84 52.5067 9.25333 51.56 9 50.36H7.68V54H4.2V44.16H7.68V47.62H9.02C9.3 46.46 9.9 45.56 10.82 44.92C11.74 44.2667 12.8867 43.94 14.26 43.94C15.3533 43.94 16.3067 44.1467 17.12 44.56C17.9333 44.9733 18.5667 45.5667 19.02 46.34C19.4733 47.1 19.7 48.0133 19.7 49.08C19.7 50.1333 19.4733 51.0467 19.02 51.82C18.5667 52.5933 17.9333 53.1867 17.12 53.6C16.3067 54.0133 15.3533 54.22 14.26 54.22ZM14.26 51.6C14.8067 51.6 15.2533 51.4 15.6 51C15.9467 50.6 16.12 49.96 16.12 49.08C16.12 48.1867 15.9467 47.5467 15.6 47.16C15.2533 46.76 14.8067 46.56 14.26 46.56C13.7133 46.56 13.2667 46.76 12.92 47.16C12.5733 47.5467 12.4 48.1867 12.4 49.08C12.4 49.96 12.5733 50.6 12.92 51C13.2667 51.4 13.7133 51.6 14.26 51.6ZM21.6809 57.6V44.16H25.1409V45.5C25.4076 45.02 25.8143 44.64 26.3609 44.36C26.9076 44.08 27.5076 43.94 28.1609 43.94C29.0009 43.94 29.7409 44.1467 30.3809 44.56C31.0343 44.9733 31.5409 45.5667 31.9009 46.34C32.2743 47.1 32.4609 48.0133 32.4609 49.08C32.4609 50.1333 32.2809 51.0467 31.9209 51.82C31.5609 52.5933 31.0543 53.1867 30.4009 53.6C29.7609 54.0133 29.0143 54.22 28.1609 54.22C27.5476 54.22 26.9743 54.0933 26.4409 53.84C25.9209 53.5867 25.5209 53.2467 25.2409 52.82V57.6H21.6809ZM27.0409 51.6C27.5743 51.6 28.0143 51.4 28.3609 51C28.7076 50.6 28.8809 49.96 28.8809 49.08C28.8809 48.1867 28.7076 47.5467 28.3609 47.16C28.0143 46.76 27.5743 46.56 27.0409 46.56C26.4943 46.56 26.0476 46.76 25.7009 47.16C25.3543 47.5467 25.1809 48.1867 25.1809 49.08C25.1809 49.96 25.3543 50.6 25.7009 51C26.0476 51.4 26.4943 51.6 27.0409 51.6ZM34.4148 54V44.16H37.6148V49.48L41.6548 44.16H44.5748V54H41.3748V48.66L37.3348 54H34.4148ZM46.2734 56.6V51.32H47.5134C47.8068 50.7867 48.0134 50.18 48.1334 49.5C48.2668 48.82 48.3334 47.9267 48.3334 46.82V44.16H56.8334V51.32H58.4934V56.6H55.4934V54H49.2734V56.6H46.2734ZM50.6134 51.34H53.5134V46.84H51.3134V47.78C51.3134 48.42 51.2534 49.06 51.1334 49.7C51.0134 50.34 50.8401 50.8867 50.6134 51.34ZM59.9617 54V44.16H63.1617V49.48L67.2017 44.16H70.1217V54H66.9217V48.66L62.8817 54H59.9617ZM78.6403 54V50.94C78.2936 51.06 77.9603 51.1467 77.6403 51.2C77.3203 51.2533 77.007 51.28 76.7003 51.28C73.647 51.28 72.1203 49.78 72.1203 46.78V44.16H75.6803V46.46C75.6803 47.1667 75.807 47.6733 76.0603 47.98C76.327 48.2867 76.787 48.44 77.4403 48.44C77.6536 48.44 77.8536 48.42 78.0403 48.38C78.2403 48.34 78.4136 48.28 78.5603 48.2V44.16H82.1203V54H78.6403ZM89.8925 54.22C88.6925 54.22 87.6525 54.0133 86.7725 53.6C85.9058 53.1733 85.2392 52.5733 84.7725 51.8C84.3058 51.0267 84.0725 50.1133 84.0725 49.06C84.0725 48.06 84.2925 47.1733 84.7325 46.4C85.1858 45.6267 85.7992 45.0267 86.5725 44.6C87.3592 44.16 88.2525 43.94 89.2525 43.94C90.2392 43.94 91.0925 44.1467 91.8125 44.56C92.5458 44.9733 93.1058 45.5667 93.4925 46.34C93.8925 47.1 94.0925 47.9933 94.0925 49.02V49.8H87.4725C87.5925 50.44 87.8592 50.9 88.2725 51.18C88.6858 51.46 89.2592 51.6 89.9925 51.6C90.4992 51.6 91.0258 51.5267 91.5725 51.38C92.1325 51.22 92.6258 50.9933 93.0525 50.7L93.9325 53.04C93.4258 53.4 92.8058 53.6867 92.0725 53.9C91.3392 54.1133 90.6125 54.22 89.8925 54.22ZM89.4125 46.24C88.8792 46.24 88.4392 46.4 88.0925 46.72C87.7592 47.04 87.5458 47.5067 87.4525 48.12H91.1725C91.1325 47.4933 90.9592 47.0267 90.6525 46.72C90.3592 46.4 89.9458 46.24 89.4125 46.24ZM101.017 54.22C99.9107 54.22 98.944 54.0133 98.1173 53.6C97.304 53.1867 96.6707 52.5933 96.2173 51.82C95.764 51.0467 95.5373 50.1267 95.5373 49.06C95.5373 47.9933 95.764 47.08 96.2173 46.32C96.6707 45.5467 97.304 44.96 98.1173 44.56C98.944 44.1467 99.9107 43.94 101.017 43.94C101.671 43.94 102.317 44.0333 102.957 44.22C103.611 44.3933 104.144 44.64 104.557 44.96L103.617 47.4C103.311 47.16 102.951 46.9733 102.537 46.84C102.137 46.6933 101.757 46.62 101.397 46.62C100.691 46.62 100.144 46.8333 99.7573 47.26C99.3707 47.6867 99.1773 48.2867 99.1773 49.06C99.1773 49.8467 99.3707 50.46 99.7573 50.9C100.144 51.3267 100.691 51.54 101.397 51.54C101.757 51.54 102.137 51.4733 102.537 51.34C102.951 51.1933 103.311 51 103.617 50.76L104.557 53.2C104.144 53.52 103.611 53.7733 102.957 53.96C102.304 54.1333 101.657 54.22 101.017 54.22ZM106.016 54V44.16H109.576V47.64H110.536L112.936 44.16H116.696L113.676 48.58C113.943 48.7533 114.176 48.9667 114.376 49.22C114.59 49.46 114.776 49.7267 114.936 50.02L117.056 54H113.276L111.776 51.2C111.59 50.88 111.403 50.66 111.216 50.54C111.03 50.42 110.79 50.36 110.496 50.36H109.576V54H106.016ZM121.429 54.22C120.669 54.22 119.996 54.08 119.409 53.8C118.836 53.52 118.382 53.14 118.049 52.66C117.729 52.1667 117.569 51.6067 117.569 50.98C117.569 50.2733 117.756 49.7133 118.129 49.3C118.502 48.8733 119.102 48.5733 119.929 48.4C120.756 48.2133 121.856 48.12 123.229 48.12H123.989V47.84C123.989 47.36 123.862 47.02 123.609 46.82C123.369 46.62 122.949 46.52 122.349 46.52C121.842 46.52 121.282 46.6 120.669 46.76C120.056 46.92 119.456 47.1667 118.869 47.5L117.969 45.16C118.302 44.92 118.729 44.7067 119.249 44.52C119.769 44.3333 120.316 44.1933 120.889 44.1C121.462 43.9933 122.002 43.94 122.509 43.94C124.149 43.94 125.362 44.2933 126.149 45C126.949 45.7067 127.349 46.82 127.349 48.34V54H124.029V52.6C123.856 53.1067 123.542 53.5067 123.089 53.8C122.636 54.08 122.082 54.22 121.429 54.22ZM122.229 51.9C122.722 51.9 123.136 51.74 123.469 51.42C123.816 51.1 123.989 50.68 123.989 50.16V49.8H123.229C122.442 49.8 121.862 49.8867 121.489 50.06C121.129 50.22 120.949 50.48 120.949 50.84C120.949 51.1467 121.056 51.4 121.269 51.6C121.496 51.8 121.816 51.9 122.229 51.9ZM128.828 54L130.208 51.58C130.581 50.9267 131.074 50.48 131.688 50.24C130.101 49.9067 129.308 48.94 129.308 47.34C129.308 46.34 129.654 45.56 130.348 45C131.041 44.44 132.041 44.16 133.348 44.16H139.048V54H135.788V51.02H135.188C134.961 51.02 134.748 51.0933 134.548 51.24C134.348 51.3867 134.174 51.58 134.028 51.82L132.808 54H128.828ZM134.128 48.78H135.788V46.4H134.128C133.634 46.4 133.261 46.5067 133.008 46.72C132.754 46.92 132.628 47.2067 132.628 47.58C132.628 47.9533 132.754 48.2467 133.008 48.46C133.261 48.6733 133.634 48.78 134.128 48.78ZM147.169 54V44.16H150.729V47.64H151.689L154.089 44.16H157.849L154.829 48.58C155.095 48.7533 155.329 48.9667 155.529 49.22C155.742 49.46 155.929 49.7267 156.089 50.02L158.209 54H154.429L152.929 51.2C152.742 50.88 152.555 50.66 152.369 50.54C152.182 50.42 151.942 50.36 151.649 50.36H150.729V54H147.169ZM164.141 54.22C163.048 54.22 162.095 54.0133 161.281 53.6C160.468 53.1867 159.835 52.5933 159.381 51.82C158.928 51.0467 158.701 50.1333 158.701 49.08C158.701 48.0133 158.928 47.1 159.381 46.34C159.835 45.5667 160.468 44.9733 161.281 44.56C162.095 44.1467 163.048 43.94 164.141 43.94C165.235 43.94 166.188 44.1467 167.001 44.56C167.815 44.9733 168.441 45.5667 168.881 46.34C169.335 47.1 169.561 48.0133 169.561 49.08C169.561 50.1333 169.335 51.0467 168.881 51.82C168.441 52.5933 167.815 53.1867 167.001 53.6C166.188 54.0133 165.235 54.22 164.141 54.22ZM164.141 51.6C164.675 51.6 165.115 51.4 165.461 51C165.808 50.6 165.981 49.96 165.981 49.08C165.981 48.1867 165.808 47.5467 165.461 47.16C165.115 46.76 164.675 46.56 164.141 46.56C163.595 46.56 163.148 46.76 162.801 47.16C162.455 47.5467 162.281 48.1867 162.281 49.08C162.281 49.96 162.455 50.6 162.801 51C163.148 51.4 163.595 51.6 164.141 51.6ZM171.524 54V44.16H174.444L177.504 49.06L180.544 44.16H183.444V54H180.324V49.1L178.284 52.38H176.684L174.644 49.1V54H171.524ZM185.841 54V44.16H196.041V54H192.481V46.88H189.401V54H185.841ZM201.878 54.22C201.118 54.22 200.445 54.08 199.858 53.8C199.285 53.52 198.832 53.14 198.498 52.66C198.178 52.1667 198.018 51.6067 198.018 50.98C198.018 50.2733 198.205 49.7133 198.578 49.3C198.952 48.8733 199.552 48.5733 200.378 48.4C201.205 48.2133 202.305 48.12 203.678 48.12H204.438V47.84C204.438 47.36 204.312 47.02 204.058 46.82C203.818 46.62 203.398 46.52 202.798 46.52C202.292 46.52 201.732 46.6 201.118 46.76C200.505 46.92 199.905 47.1667 199.318 47.5L198.418 45.16C198.752 44.92 199.178 44.7067 199.698 44.52C200.218 44.3333 200.765 44.1933 201.338 44.1C201.912 43.9933 202.452 43.94 202.958 43.94C204.598 43.94 205.812 44.2933 206.598 45C207.398 45.7067 207.798 46.82 207.798 48.34V54H204.478V52.6C204.305 53.1067 203.992 53.5067 203.538 53.8C203.085 54.08 202.532 54.22 201.878 54.22ZM202.678 51.9C203.172 51.9 203.585 51.74 203.918 51.42C204.265 51.1 204.438 50.68 204.438 50.16V49.8H203.678C202.892 49.8 202.312 49.8867 201.938 50.06C201.578 50.22 201.398 50.48 201.398 50.84C201.398 51.1467 201.505 51.4 201.718 51.6C201.945 51.8 202.265 51.9 202.678 51.9ZM210.157 54V44.16H213.717V47.62H216.857V44.16H220.417V54H216.857V50.36H213.717V54H210.157ZM222.813 54V44.16H226.013V49.48L230.053 44.16H232.973V54H229.773V48.66L225.733 54H222.813ZM234.492 54L235.872 51.58C236.245 50.9267 236.739 50.48 237.352 50.24C235.765 49.9067 234.972 48.94 234.972 47.34C234.972 46.34 235.319 45.56 236.012 45C236.705 44.44 237.705 44.16 239.012 44.16H244.712V54H241.452V51.02H240.852C240.625 51.02 240.412 51.0933 240.212 51.24C240.012 51.3867 239.839 51.58 239.692 51.82L238.472 54H234.492ZM239.792 48.78H241.452V46.4H239.792C239.299 46.4 238.925 46.5067 238.672 46.72C238.419 46.92 238.292 47.2067 238.292 47.58C238.292 47.9533 238.419 48.2467 238.672 48.46C238.925 48.6733 239.299 48.78 239.792 48.78Z" fill="white"/>
</g>
<defs>
<filter id="filter0_d_156_577" x="-1" y="0" width="320" height="70" filterUnits="userSpaceOnUse" color-interpolation-filters="sRGB">
<feFlood flood-opacity="0" result="BackgroundImageFix"/>
<feColorMatrix in="SourceAlpha" type="matrix" values="0 0 0 0 0 0 0 0 0 0 0 0 0 0 0 0 0 0 127 0" result="hardAlpha"/>
<feOffset dy="4"/>
<feGaussianBlur stdDeviation="2"/>
<feComposite in2="hardAlpha" operator="out"/>
<feColorMatrix type="matrix" values="0 0 0 0 0 0 0 0 0 0 0 0 0 0 0 0 0 0 0.25 0"/>
<feBlend mode="normal" in2="BackgroundImageFix" result="effect1_dropShadow_156_577"/>
<feBlend mode="normal" in="SourceGraphic" in2="effect1_dropShadow_156_577" result="shape"/>
</filter>
</defs>
</svg>
