<svg width="35" height="35" viewBox="0 0 35 35" fill="none" xmlns="http://www.w3.org/2000/svg">
<g clip-path="url(#clip0_156_603)">
<path d="M-5 15.6667H-1V31.7083C-1 33.3271 -2.61875 38 -1 38L26.7083 39.5V40.5H13.5L-6 34.625L-5 15.6667Z" fill="#4F8FF0"/>
<path d="M23.7917 9.83333V6.91667C23.7917 5.3125 22.4792 4 20.875 4H15.0417C13.4375 4 12.125 5.3125 12.125 6.91667V9.83333H4.83333V25.875C4.83333 27.4792 6.14583 28.7917 7.75 28.7917H28.1667C29.7708 28.7917 31.0833 27.4792 31.0833 25.875V9.83333H23.7917ZM15.0417 6.91667H20.875V9.83333H15.0417V6.91667ZM28.1667 25.875H7.75V12.75H28.1667V25.875Z" fill="#4F8FF0"/>
</g>
<defs>
<clipPath id="clip0_156_603">
<rect width="35" height="35" fill="white"/>
</clipPath>
</defs>
</svg>
